<svg xmlns="http://www.w3.org/2000/svg" id="Group_208" width="36.632" height="88.227" data-name="Group 208" viewBox="0 0 36.632 88.227">
    <defs>
        <style>
            .cls-1{fill:#afb0b4}
        </style>
    </defs>
    <g id="Group_207" data-name="Group 207">
        <circle id="Ellipse_4" cx="9.538" cy="9.538" r="9.538" class="cls-1" data-name="Ellipse 4" transform="translate(8.691)"/>
        <path id="Path_219" d="M441.994 184.851h-22.92a6.858 6.858 0 0 0-6.856 6.855v32.758a3.237 3.237 0 0 0 3.238 3.237h.063a3.237 3.237 0 0 0 3.238-3.237v-29.711a.852.852 0 0 1 1.7-.055v52.812a4.609 4.609 0 0 0 9.218 0v-26.923a.866.866 0 0 1 1.732 0v26.923a4.607 4.607 0 0 0 9.214 0v-32.579h.033v-20.178a.858.858 0 0 1 1.717 0v29.711a3.238 3.238 0 0 0 6.477 0v-32.758a6.855 6.855 0 0 0-6.854-6.855z" class="cls-1" data-name="Path 219" transform="translate(-412.218 -163.854)"/>
    </g>
</svg>
