<svg xmlns="http://www.w3.org/2000/svg" id="Group_215" width="36.945" height="90.729" data-name="Group 215" viewBox="0 0 36.945 90.729">
    <defs>
        <style>
            .cls-1{fill:#00a8c3}
        </style>
    </defs>
    <circle id="Ellipse_7" cx="9.62" cy="9.62" r="9.62" class="cls-1" data-name="Ellipse 7" transform="translate(8.763)"/>
    <path id="Path_224" d="M406.49 248.33h-23.113a7 7 0 0 0-6.916 7.092v33.889a3.3 3.3 0 0 0 3.263 3.349h.063a3.308 3.308 0 0 0 3.266-3.349v-30.737a.861.861 0 0 1 1.721-.057v54.638a4.648 4.648 0 1 0 9.294 0V285.3a.873.873 0 1 1 1.747 0v27.856a4.648 4.648 0 1 0 9.294 0v-33.708h.037v-20.874a.864.864 0 1 1 1.728 0v30.736a3.267 3.267 0 1 0 6.533 0v-33.889a7 7 0 0 0-6.917-7.091z" class="cls-1" data-name="Path 224" transform="translate(-376.461 -227.152)"/>
</svg>
