<svg xmlns="http://www.w3.org/2000/svg" id="Group_229" width="37.215" height="99.864" data-name="Group 229" viewBox="0 0 37.215 99.864">
    <defs>
        <style>
            .cls-1{fill:#00b38e}
        </style>
    </defs>
    <path id="Path_237" d="M410.12 315.8a9.691 9.691 0 1 1-9.691-9.691 9.691 9.691 0 0 1 9.691 9.691z" class="cls-1" data-name="Path 237" transform="translate(-381.912 -306.11)"/>
    <path id="Path_238" d="M418.629 311.809h-23.283c-3.848 0-6.966 3.585-6.966 8.007v38.269a3.561 3.561 0 0 0 3.29 3.781h.06a3.561 3.561 0 0 0 3.29-3.781v-34.709a.942.942 0 0 1 .872-1 .931.931 0 0 1 .861.935V385c0 2.949 2.1 5.34 4.683 5.34s4.679-2.39 4.679-5.34v-31.448a.887.887 0 1 1 1.759 0V385c0 2.949 2.1 5.34 4.683 5.34s4.683-2.39 4.683-5.34v-38.055h.034v-23.569a.88.88 0 1 1 1.744 0v34.709a3.321 3.321 0 1 0 6.577 0v-38.269c0-4.422-3.118-8.007-6.966-8.007z" class="cls-1" data-name="Path 238" transform="translate(-388.38 -290.477)"/>
</svg>
