<svg xmlns="http://www.w3.org/2000/svg" id="Group_206" width="36.632" height="88.227" data-name="Group 206" viewBox="0 0 36.632 88.227">
    <defs>
        <style>
            .cls-1{fill:#fec922}
        </style>
    </defs>
    <circle id="Ellipse_3" cx="9.538" cy="9.538" r="9.538" class="cls-1" data-name="Ellipse 3" transform="translate(8.69)"/>
    <path id="Path_218" d="M430.075 184.851h-22.92a6.855 6.855 0 0 0-6.856 6.855v32.758a3.237 3.237 0 0 0 3.238 3.237h.063a3.234 3.234 0 0 0 3.235-3.237v-29.711a.854.854 0 0 1 1.706-.055v52.812a4.609 4.609 0 0 0 9.218 0v-26.923a.864.864 0 0 1 1.728 0v26.923a4.609 4.609 0 0 0 9.218 0v-32.579h.033v-20.178a.858.858 0 0 1 1.717 0v29.711a3.238 3.238 0 0 0 6.477 0v-32.758a6.858 6.858 0 0 0-6.857-6.855z" class="cls-1" data-name="Path 218" transform="translate(-400.299 -163.854)"/>
</svg>
