<svg xmlns="http://www.w3.org/2000/svg" width="145.5" height="117.073" viewBox="0 0 145.5 117.073">
    <defs>
        <style>
            .cls-1{fill:url(#linear-gradient)}
        </style>
        <linearGradient id="linear-gradient" x1="1.07" x2=".165" y1="-.644" y2=".815" gradientUnits="objectBoundingBox">
            <stop offset="0" stop-color="#f9a819"/>
            <stop offset="1" stop-color="#f8d82f"/>
        </linearGradient>
    </defs>
    <g id="Group_526" data-name="Group 526" transform="translate(-298.165 -198.45)">
        <path id="Path_372" d="M337.229 352.977c0 1.156.008 1.941 0 2.727-.044 3.843-1.737 6.009-4.622 5.923s-4.439-2.22-4.439-6.129q0-12.729.009-25.458v-4.086a62.219 62.219 0 0 1-8.294-.117c-1.128-.156-2.78-1.509-2.905-2.483-.118-.92 1.277-2.715 2.313-3 10.355-2.81 20.667-6.009 31.21-7.819 7.6-1.3 15.527-.752 23.31-.876 6.609-.1 13.231.235 19.83-.035a64.008 64.008 0 0 1 20.723 2.53c7.656 2.227 15.44 4.016 23.174 5.977 1.807.459 3.472 1.39 2.694 3.375a4.946 4.946 0 0 1-3.426 2.357 53.183 53.183 0 0 1-7.782.107v3.43c0 8.881.014 17.762-.008 26.642-.008 3.423-1.662 5.472-4.386 5.572-2.817.1-4.6-2.03-4.664-5.582-.016-.96 0-1.922 0-3.057zM345.9 319.9H411c-9.083-5.244-53.992-5.312-65.1 0z" class="cls-1" data-name="Path 372" transform="translate(-7.665 -46.107)"/>
        <path id="Path_373" d="M404.607 255.706c.88-2.964 2.057-5.687-.193-8.307-1.262-1.47-.413-2.6 1.352-2.877a10.764 10.764 0 0 1 2.953-.005c1.981.244 2.77 1.415 1.432 3.014-2.212 2.643-.922 5.322-.146 8.191 1.262-3.009 2.612-5.985 3.751-9.04.618-1.657 1.454-2.434 3.273-2 .951.229 1.965.184 2.938.342 5.627.913 7.194 2.751 7.206 8.5q.025 11.548 0 23.1c0 .96-.092 1.92-.15 3.037h-39.354c-.073-1.1-.2-2.127-.2-3.155q-.024-11.1-.006-22.207c0-6.734 1.629-8.423 8.309-9.321 3.04-.409 5 .062 5.87 3.429a55.747 55.747 0 0 0 2.965 7.299z" class="cls-1" data-name="Path 373" transform="translate(-36.394 -18.736)"/>
        <path id="Path_374" d="M463.134 286.262a42.728 42.728 0 0 1 5.7-21.1 8.934 8.934 0 0 1 10.382-3.659c4.061 1.209 6.208 4.1 6.243 8.582.041 5.514.057 11.029-.023 16.542a39.4 39.4 0 0 1-.7 4.889z" class="cls-1" data-name="Path 374" transform="translate(-67.239 -25.529)"/>
        <path id="Path_375" d="M320.518 298.045c-2.991.808-5.707 1.695-8.489 2.258-4.422.9-7.429 3.031-7.673 7.894-3.82-.889-6-3.23-6.081-7a407.246 407.246 0 0 1-.007-18.626c.1-4.082 2.7-6.857 6.81-7.8a9.051 9.051 0 0 1 10.121 4.326 45.69 45.69 0 0 1 5.319 18.948z" class="cls-1" data-name="Path 375" transform="translate(0 -31.003)"/>
        <path id="Path_376" d="M363.475 286.249l-21.511 5.251a32.1 32.1 0 0 1-.8-4.792c-.1-5.52-.065-11.043-.029-16.564.03-4.508 2.148-7.4 6.214-8.621a9.1 9.1 0 0 1 10.581 3.886 44.176 44.176 0 0 1 5.545 20.84z" class="cls-1" data-name="Path 376" transform="translate(-17.499 -25.537)"/>
        <path id="Path_377" d="M522.426 308.149c-1.206-9.779-10.4-7.14-16.227-10.617.505-6.9 2.015-13.853 6.294-19.833 2.376-3.319 6.584-4.072 10.429-2.629 3.629 1.361 5.478 4.186 5.5 8.552.03 5.617.062 11.235-.015 16.851-.056 4.227-1.968 6.594-5.981 7.676z" class="cls-1" data-name="Path 377" transform="translate(-84.791 -30.944)"/>
        <path id="Path_378" d="M413.516 221.425a11.488 11.488 0 0 1-.166-22.974 11.488 11.488 0 1 1 .166 22.974z" class="cls-1" data-name="Path 378" transform="translate(-42.317)"/>
        <path id="Path_379" d="M479.406 229.877a8.575 8.575 0 0 1 .105 17.149 8.575 8.575 0 1 1-.105-17.149z" class="cls-1" data-name="Path 379" transform="translate(-70.385 -12.809)"/>
        <path id="Path_380" d="M359.322 238.606a8.416 8.416 0 0 1-8.475 8.408 8.562 8.562 0 1 1 .027-17.122 8.388 8.388 0 0 1 8.448 8.714z" class="cls-1" data-name="Path 380" transform="translate(-17.934 -12.815)"/>
        <path id="Path_381" d="M316.419 251.742a8.514 8.514 0 0 1-8.54 8.666 8.712 8.712 0 0 1-8.614-8.38 8.608 8.608 0 0 1 8.481-8.777 8.419 8.419 0 0 1 8.673 8.491z" class="cls-1" data-name="Path 381" transform="translate(-.448 -18.26)"/>
        <path id="Path_382" d="M522.284 243.245a8.618 8.618 0 0 1 8.633 8.639 8.775 8.775 0 0 1-8.489 8.535 8.549 8.549 0 0 1-8.682-8.536 8.425 8.425 0 0 1 8.538-8.638z" class="cls-1" data-name="Path 382" transform="translate(-87.867 -18.258)"/>
    </g>
</svg>
