<svg xmlns="http://www.w3.org/2000/svg" width="171.678" height="189.41" viewBox="0 0 171.678 189.41">
  <g id="Group_504" data-name="Group 504" transform="translate(-84 -817)">
    <g id="Group_6" data-name="Group 6" transform="translate(84 817)" opacity="0.13">
      <path id="Path_26" data-name="Path 26" d="M121.575,231.334c-.595,2.451-1.042,4.062-1.374,5.7-4.16,20.492-11.113,39.792-23.975,56.6-3.951,5.164-4.505,5.212-8.387.138a122.994,122.994,0,0,1-21.726-46.264c-1.242-5.1-2.466-10.214-3.785-15.682-9.183,4.076-17.883,7.843-26.5,11.785-19.736,9.028-28.757,25.037-29.659,46.159-.227,5.317,1.279,7.138,6.4,8.82a34.43,34.43,0,0,0,4.5,1.269,452.991,452.991,0,0,0,73.654,7.8C111.618,308.027,135.076,238.719,121.575,231.334Zm4.922-42.576Zm19.363-10.252c0-2.084-.113-4.175.024-6.249.275-4.183-.462-7.67-4.7-9.812-1.128-.569-2-2.425-2.254-3.825-3.858-21.068-16.257-34-36.961-39.075-24.872-6.094-54.334,10.326-57.725,39.02-.177,1.5-1.755,2.83-2.692,4.231-1.376,2.059-3.753,4.019-3.954,6.183a142.1,142.1,0,0,0-.141,17.951,8.8,8.8,0,0,0,9.022,8.418c4.247.021,5.055-1.358,4.683-5.481a132.226,132.226,0,0,1-.191-15.122c.09-3.672,1.088-7.38.772-10.992a32.578,32.578,0,0,1,5.292-21.527c9.821-14.837,29.785-21.442,48.149-16.009,17.741,5.249,28.967,20.281,29.088,38.935.014,2.213-.485,4.616.2,6.6,2.178,6.31.856,12.3-.8,18.367-.291,1.065-.645,2.779-.11,3.29,2.548,2.426,1.4,5.035.745,7.6-1.922,7.521-5.633,14.175-11.714,18.921a51.174,51.174,0,0,1-13.559,7.338c-4.741,1.762-10.023,2.027-14.872,3.564-1.515.48-3.577,3.244-3.284,4.452.41,1.689,3.068,4.306,4.283,4.069a77.774,77.774,0,0,0,15.033-4.63c2.569-1.077,4.386-3.837,6.89-5.2,12.681-6.885,19.812-17.594,22.592-31.547a7.179,7.179,0,0,1,2.423-4.044c2.643-1.98,3.979-4.3,3.793-7.618C145.742,183.721,145.858,181.109,145.86,178.505Zm-45.9,69.326a10.585,10.585,0,0,0-12.677-2.91c-2.607,1.17-2.889,2.353-.8,4.554,1.792,1.892,3,4.337,4.626,6.77ZM97.727,277.7l-9.973,9.351,4.145,4.811C95.482,287.522,101.719,285.021,97.727,277.7Zm-.612-6.514c-4.219,3.9-9.753,6.565-11.763,12.518C89.2,279.467,96.688,278.614,97.115,271.185Zm-11.058,4.056c9.757-5.95,10.924-7.345,9.858-12.042C92.656,267.147,87.532,268.975,86.057,275.241Zm8.582-18.974c-3.134,3.154-7.086,4.836-6.638,9.656C90.352,263.042,96.153,262.793,94.64,256.267Z" transform="translate(-6.145 -118.281)" fill="#fff"/>
      <path id="Path_27" data-name="Path 27" d="M121.575,262.968c13.5,7.385,28.668,10.041,39.957,20.31,11.938,10.86,16.635,24.795,16.272,40.661-.072,3.117-2.127,4.752-4.809,5.38-6.689,1.568-13.386,3.2-20.165,4.272-20.572,3.247-41.211,6.07-62.111,5.7a452.991,452.991,0,0,1-73.654-7.8,34.425,34.425,0,0,1-4.5-1.269c-5.118-1.682-6.624-3.5-6.4-8.82.9-21.122,9.923-37.131,29.659-46.159,8.619-3.943,17.319-7.709,26.5-11.785,1.319,5.468,2.543,10.577,3.785,15.682A123,123,0,0,0,87.839,325.4c3.882,5.075,4.436,5.027,8.387-.138,12.863-16.809,19.815-36.11,23.975-56.6C120.532,267.03,120.98,265.419,121.575,262.968Z" transform="translate(-6.145 -149.915)" fill="#fff"/>
      <path id="Path_29" data-name="Path 29" d="M154.559,178.505c0,2.6-.117,5.216.029,7.812.187,3.321-1.15,5.638-3.793,7.618a7.179,7.179,0,0,0-2.423,4.044c-2.78,13.953-9.911,24.661-22.592,31.547-2.5,1.36-4.321,4.12-6.89,5.2a77.774,77.774,0,0,1-15.033,4.63c-1.215.238-3.873-2.38-4.283-4.069-.293-1.208,1.769-3.972,3.284-4.452,4.85-1.537,10.131-1.8,14.872-3.564a51.174,51.174,0,0,0,13.559-7.338c6.081-4.746,9.792-11.4,11.714-18.921.654-2.561,1.8-5.169-.745-7.6-.535-.51-.18-2.225.11-3.29,1.655-6.067,2.976-12.057.8-18.367-.685-1.988-.186-4.39-.2-6.6-.12-18.654-11.347-33.686-29.088-38.935-18.364-5.434-38.328,1.171-48.149,16.009a32.578,32.578,0,0,0-5.292,21.527c.316,3.612-.682,7.32-.772,10.992a132.226,132.226,0,0,0,.191,15.122c.372,4.123-.437,5.5-4.683,5.481a8.8,8.8,0,0,1-9.022-8.418,142.1,142.1,0,0,1,.141-17.951c.2-2.164,2.578-4.124,3.954-6.183.937-1.4,2.514-2.735,2.692-4.231,3.391-28.694,32.854-45.114,57.725-39.02,20.7,5.073,33.1,18.007,36.961,39.075.256,1.4,1.127,3.256,2.254,3.825,4.243,2.142,4.98,5.629,4.7,9.812C154.447,174.33,154.56,176.421,154.559,178.505Z" transform="translate(-14.845 -118.281)" fill="#fff"/>
      <path id="Path_30" data-name="Path 30" d="M122.054,282.99,113.2,291.4c-1.623-2.433-2.833-4.877-4.626-6.77-2.085-2.2-1.8-3.383.8-4.554A10.585,10.585,0,0,1,122.054,282.99Z" transform="translate(-28.238 -153.439)" fill="#fff"/>
      <path id="Path_31" data-name="Path 31" d="M120.562,322.307c3.992,7.322-2.245,9.823-5.828,14.162l-4.145-4.811Z" transform="translate(-28.98 -162.889)" fill="#fff"/>
      <path id="Path_32" data-name="Path 32" d="M119.279,313.97c-.427,7.429-7.911,8.282-11.763,12.518C109.526,320.535,115.06,317.866,119.279,313.97Z" transform="translate(-28.309 -161.066)" fill="#fff"/>
      <path id="Path_33" data-name="Path 33" d="M108.418,315.792c1.474-6.266,6.6-8.094,9.858-12.042C119.342,308.447,118.175,309.841,108.418,315.792Z" transform="translate(-28.506 -158.831)" fill="#fff"/>
      <path id="Path_34" data-name="Path 34" d="M117.535,294.878c1.513,6.526-4.287,6.774-6.638,9.656C110.449,299.714,114.4,298.032,117.535,294.878Z" transform="translate(-29.04 -156.892)" fill="#fff"/>
    </g>
    <path id="Path_35" data-name="Path 35" d="M105.38,136.338c14.175,1.245,25.126,4.755,31.105,16.878,2.924,5.927,2.93,12.3,2.162,18.733-.434,3.633-1,6.792,2.377,10.226,1.775,1.8,1.313,7.628-.226,10.53-4.433,8.354-9.205,16.734-15.164,24.025-10.629,13-27.569,12.5-37.857-.859a168.812,168.812,0,0,1-14.152-22.393c-2.414-4.433-3.561-9.593,1.381-13.839.759-.652.79-2.39.8-3.63.048-4.554-.194-9.112-.071-13.663.29-10.789,5.783-18.253,15.558-22.222C96.267,138.105,101.726,137.287,105.38,136.338ZM81.339,182.589c-4.9-.706-6.542,1.3-5.23,5.87a3.215,3.215,0,0,0,.265.733c4.968,8.507,9.126,17.643,15.115,25.358,8.1,10.43,25.2,9.808,33.031-.863,5.273-7.185,9.321-15.283,13.748-23.068,1.6-2.807,1.214-5.742-.835-8.539l-3.708.938c.457-3.741.86-7.04,1.3-10.645-1.606-.19-2.867-.37-4.133-.484-12.735-1.143-24.919-3.583-34.857-12.689-1.367-1.253-4.78-1.32-6.8-.627-5.893,2.025-9.249,8.41-8.746,15.462C80.7,176.864,81.047,179.682,81.339,182.589Z" transform="translate(63.554 694.771)" fill="#fff" opacity="0.13"/>
  </g>
</svg>
