<svg xmlns="http://www.w3.org/2000/svg" width="333.929" height="194.772" viewBox="0 0 333.929 194.772">
  <g id="Group_281" data-name="Group 281" transform="translate(-154.881 -55.873)" opacity="0.12">
    <path id="Path_13" data-name="Path 13" d="M274.1,95.863l8.131,21.261,1.707-.285V98.657h6.46a41.134,41.134,0,0,0-.414,5.246,51.879,51.879,0,0,0,2.118,13.985l8.512-21.782c4.337,1.331,8.514,2.6,12.684,3.892,7.732,2.395,11.768,7.23,11.765,15.744,0,9.165.791,18.336,1.409,27.493.327,4.857-1.632,6.988-6.548,6.968q-32.575-.141-65.152-.015c-5.317.027-7.214-2.376-6.876-7.409.674-10.05,1.078-20.119,1.85-30.161.429-5.581,3.214-9.621,8.844-11.421C263.653,99.578,268.651,97.745,274.1,95.863Z" transform="translate(32.11 13.811)" fill="#fff"/>
    <path id="Path_14" data-name="Path 14" d="M154.939,185.721c-.007-4.028.135-8.063-.036-12.083-.324-7.6,3.02-13.055,9.8-16.054s13.6-2.613,19.64,2.1c12,9.357,19.525,36.411,13.731,50.6-.981,2.4-4.258,5.215-6.684,5.423a107.41,107.41,0,0,1-22.065-.178c-9.615-1.166-14.268-7.268-14.371-17.045C154.908,194.225,154.946,189.974,154.939,185.721Z" transform="translate(0 34.465)" fill="#fff"/>
    <path id="Path_15" data-name="Path 15" d="M414.556,185.8c-.008,4.476.051,8.952-.02,13.427-.14,8.679-4.586,14.864-13.117,16.026a102.387,102.387,0,0,1-23.369.392c-2.586-.246-6.409-4.008-6.934-6.7-3.381-17.318-.292-33.4,11.7-46.957,5.54-6.26,13.221-7.8,20.8-4.9,7.517,2.876,10.877,8.174,10.938,17.3C414.586,178.188,414.564,181.992,414.556,185.8Z" transform="translate(74.237 34.469)" fill="#fff"/>
    <path id="Path_16" data-name="Path 16" d="M188.817,141.361c0-4.254.094-8.509-.022-12.758-.2-7.338,3.185-12.461,9.683-15.45,7.112-3.271,14.017-2.7,20.105,2.427,11.967,10.07,19.017,35.693,13.366,50.107a10.576,10.576,0,0,1-7.254,5.567,107.59,107.59,0,0,1-20.774.094c-9.192-.76-14.9-7.391-15.069-16.557-.083-4.475-.013-8.953-.013-13.429Z" transform="translate(11.71 19.08)" fill="#fff"/>
    <path id="Path_17" data-name="Path 17" d="M380.662,142.3c0,4.028.047,8.057-.009,12.087-.137,9.871-6.156,16.479-16.014,17.036-6.471.366-13.084.772-19.422-.206-2.956-.456-7.217-3.762-7.8-6.446-3.809-17.579-.418-33.782,11.807-47.486,5.716-6.408,12.975-7.521,20.845-4.619,7.118,2.625,10.5,8.138,10.611,16.874.057,4.253.009,8.505.009,12.76Z" transform="translate(62.531 19.092)" fill="#fff"/>
    <path id="Path_18" data-name="Path 18" d="M393.936,127.925c9.681,0,17.175,7.718,17.1,17.6a17.238,17.238,0,0,1-17.019,17.112,17.541,17.541,0,0,1-17.568-17.367A17.291,17.291,0,0,1,393.936,127.925Z" transform="translate(76.522 24.885)" fill="#fff"/>
    <path id="Path_19" data-name="Path 19" d="M155.834,145.543a17.291,17.291,0,1,1,34.579-.291,17.5,17.5,0,0,1-17.538,17.393A17.272,17.272,0,0,1,155.834,145.543Z" transform="translate(0.329 24.884)" fill="#fff"/>
    <path id="Path_20" data-name="Path 20" d="M224.158,100.8a17.236,17.236,0,0,1-34.47.258,17.239,17.239,0,1,1,34.47-.258Z" transform="translate(12.021 9.491)" fill="#fff"/>
    <path id="Path_21" data-name="Path 21" d="M377.148,100.655a17.235,17.235,0,0,1-34.464.54,17.238,17.238,0,1,1,34.464-.54Z" transform="translate(64.86 9.488)" fill="#fff"/>
    <path id="Path_22" data-name="Path 22" d="M301.086,79.807c-2.563,6.653-4.477,13.657-7.838,19.878-5.147,9.528-16.823,9.076-23.155.328-7.531-10.4-6.537-21.9-5.641-33.459.147-1.877,2.06-3.755,3.458-5.371,6.765-7.817,14.958-5.477,22.83-2.6,6.785,2.481,8.929,8.253,8.7,15.107-.061,1.784-.009,3.572-.009,5.357Zm-3.554,3.351-1.483-.88c-.2-2.213.257-4.843-.8-6.52-.994-1.579-4.246-3.494-5.361-2.944-5.56,2.743-10.693,1.828-16.22.144-1.458-.444-5.051,1.328-5.341,2.609a26.211,26.211,0,0,0,7,25.176c3.549,3.67,10.275,3.713,13.142-.452C292.111,95.007,294.566,88.907,297.531,83.159Z" transform="translate(37.632)" fill="#fff"/>
  </g>
</svg>
