<svg xmlns="http://www.w3.org/2000/svg" width="144.014" height="164.884" viewBox="0 0 144.014 164.884">
  <g id="Group_284" data-name="Group 284" transform="translate(-348.482 -135.057)" opacity="0.17">
    <path id="Path_23" data-name="Path 23" d="M469.056,133.261c0,7.661.009,15.173,0,22.686-.014,8.84,3.6,12.414,12.531,12.4,7.417-.013,14.835,0,22.611,0,.081,1.342.2,2.419.2,3.5q.02,48.312.011,96.624c0,4.793-1.143,5.866-6.071,5.866q-53.718.008-107.435,0c-4.331,0-5.613-1.235-5.615-5.664q-.029-65.035,0-130.07c0-4.075,1.317-5.511,5.1-5.516q38.346-.046,76.691-.009C467.618,133.068,468.156,133.17,469.056,133.261ZM444.68,212.307q19.6,0,39.194,0c1.012,0,2.258.306,2.984-.164,1.175-.762,2.756-2.033,2.781-3.12.026-1.135-1.4-2.58-2.546-3.37-.784-.54-2.18-.233-3.3-.234q-31.93-.009-63.859,0c-5.069,0-10.136.03-15.2-.006-2.531-.018-4.7.656-4.71,3.558-.013,3.065,2.352,3.414,4.793,3.342.788-.023,1.577,0,2.366,0Zm.235,46.05v.012q19.436,0,38.87-.007c1.123,0,2.46.255,3.316-.252,1.11-.657,2.491-1.925,2.548-2.995.057-1.093-1.14-2.543-2.178-3.308-.768-.567-2.161-.368-3.276-.369q-39.208-.023-78.417-.006c-1.011,0-2.331-.314-2.967.195-1.168.934-2.576,2.334-2.652,3.614-.057.953,1.729,2.159,2.888,2.981.535.38,1.532.132,2.32.132Q425.141,258.361,444.914,258.357Zm.016-23.2c13.516,0,27.032-.018,40.548.017,2.508.006,4.371-.857,4.293-3.55-.07-2.451-1.84-3.327-4.211-3.325q-40.547.037-81.095.041c-.967,0-2.323.074-2.813.674-.821,1-1.859,3.059-1.435,3.6a6.3,6.3,0,0,0,4.167,2.434C417.9,235.229,431.415,235.156,444.931,235.156Zm-.444-46c13.629,0,27.257.02,40.886-.014,3.537-.008,5.718-2.711,3.9-4.952a6.584,6.584,0,0,0-4.61-1.814c-26.356-.107-52.713-.078-79.069-.074-.9,0-2.087-.312-2.642.138-1.177.955-2.676,2.253-2.8,3.529-.09.952,1.652,2.267,2.819,3.07.619.426,1.752.118,2.652.118Q425.057,189.158,444.486,189.153Z" transform="translate(-11.918 2)" fill="#fff"/>
    <path id="Path_24" data-name="Path 24" d="M366.209,170.365c0,11.487,0,22.845,0,34.2q-.005,37.676-.009,75.352c0,9.49,4.282,13.691,13.911,13.693q41.9.006,83.8,0h3.639c0,4.8.134,9.281-.053,13.747-.1,2.482-1.79,3.775-4.29,3.87-1.012.039-2.027.021-3.041.021l-104.75,0c-6.1,0-6.928-.763-6.93-6.732q-.013-64.2.011-128.4c0-5.146,1.009-6.121,6.123-6.125q5.237,0,10.474.04A6.156,6.156,0,0,1,366.209,170.365Z" transform="translate(0 -11.315)" fill="#fff"/>
    <path id="Path_25" data-name="Path 25" d="M543.5,163.235c-6.9,0-13.847.106-20.781-.126a3.846,3.846,0,0,1-2.579-2.723c-.225-6.922-.12-13.854-.12-20.764Z" transform="translate(-55.556 -1.479)" fill="#fff"/>
  </g>
</svg>
