<svg xmlns="http://www.w3.org/2000/svg" width="332.007" height="194.5" viewBox="0 0 332.007 194.5">
  <g id="Group_283" data-name="Group 283" transform="translate(-51 -247.042)" opacity="0.13">
    <path id="Path_1" data-name="Path 1" d="M51,517.649c1.172-4.819,4.573-6.7,9.158-7.851,28.027-7.043,56-14.315,84-21.455a24.922,24.922,0,0,1,6.071-.783c43.858-.042,87.717-.2,131.572.151,6.864.055,13.787,2.155,20.548,3.845,24.061,6.012,48.064,12.254,72.088,18.413.626.161,1.245.354,1.864.543,4.6,1.4,6.82,4.595,6.18,8.872-.6,4.005-3.705,6.577-8.3,6.594-14.367.053-28.734.032-43.1.032q-134.491,0-268.982.06c-5.545.006-9.441-1.56-11.1-7.125Zm253.888-7.357.135-.6c-.977-.381-1.94-.8-2.93-1.137-7.341-2.516-14.667-5.079-22.046-7.478a19.8,19.8,0,0,0-5.983-1c-34.88-.059-69.76.079-104.638-.131-8.308-.051-16.263.648-23.986,3.934-4.648,1.978-9.565,3.323-14.352,4.981a20.91,20.91,0,0,0-2.093.982l.158.446Z" transform="translate(0 -84.528)" fill="#fff"/>
    <path id="Path_2" data-name="Path 2" d="M51,458.637c.451-8.056,1.015-16.109,1.321-24.171a37.417,37.417,0,0,1,6.37-20.058c4.431-6.543,7.915-7.45,14.484-2.953,3.967,2.716,7.442,6.149,11.342,9.432a36.894,36.894,0,0,0-1.6-16.407,11.554,11.554,0,0,1,11.426,7.981,73.391,73.391,0,0,1,2.872,13.846c1.534,11.854,2.793,23.745,4.194,35.9-9.626,2.48-19.189,4.986-28.776,7.4-7.2,1.81-14.424,3.5-21.638,5.241Z" transform="translate(0 -55.346)" fill="#fff"/>
    <path id="Path_3" data-name="Path 3" d="M535.664,474.745c-7.11-1.726-14.23-3.407-21.326-5.187-9.609-2.411-19.2-4.9-29.1-7.428.655-5.735,1.284-11.373,1.946-17.006,1.032-8.784,1.946-17.587,3.177-26.343.935-6.648,3.612-12.246,10.77-14.318a11.527,11.527,0,0,1,2.021-.28L501.5,420.767l.8.139a70.523,70.523,0,0,1,5.775-5.426,57.039,57.039,0,0,1,9.135-6c3.783-1.851,5.785-1.209,8.551,2.021a35.455,35.455,0,0,1,8.546,22.541c.237,7.012.547,14.022.867,21.031.053,1.159.32,2.308.488,3.461Z" transform="translate(-152.657 -55.242)" fill="#fff"/>
    <path id="Path_4" data-name="Path 4" d="M231.217,425.351c0-6.217-.387-11.948.071-17.611,1.483-18.291,3.274-36.559,4.954-54.835.346-3.759,2.028-6.324,5.821-7.7,7.174-2.6,14.223-5.546,21.359-8.362,3.478,12.274,6.841,24.138,10.2,36l1.349-.2c.273-2.787.573-5.572.813-8.362.36-4.2.753-8.392.983-12.6.131-2.4,1.558-3.783,3.583-3.754s3.362,1.467,3.521,3.846c.465,6.957,1.089,13.9,2.03,20.918,5.524-11.28,7.461-23.646,11.138-35.961,8.063,3.247,16.048,6.2,23.744,9.766,1.695.787,3.145,3.686,3.39,5.769,2.721,23.055,5.557,46.109,5.375,69.4-.021,2.687-.546,3.756-3.546,3.746-30.254-.11-60.508-.067-90.762-.067Z" transform="translate(-63.301 -31.533)" fill="#fff"/>
    <path id="Path_5" data-name="Path 5" d="M167.057,414.671c-.556-5.444-1.113-10.887-1.7-16.58,4.513.514,8.576,2.54,10.172,6.939a77.647,77.647,0,0,1,3.433,15.329c1.112,7.684,1.693,15.443,2.632,23.154.274,2.251,0,3.4-2.605,4.044-14.955,3.685-29.85,7.611-45.566,11.661,0-3.359-.093-6.326.017-9.286.317-8.521.539-17.051,1.137-25.554.524-7.456,3.776-13.859,8.674-19.449,2.108-2.406,4.815-3.33,7.52-1.649,4.258,2.646,8.253,5.723,12.286,8.716a23.775,23.775,0,0,1,2.847,2.969Z" transform="translate(-28.964 -53.101)" fill="#fff"/>
    <path id="Path_6" data-name="Path 6" d="M422.43,398.145l-1.706,16.46,1.156.366a41,41,0,0,1,4.648-4.74,103.016,103.016,0,0,1,10.421-6.931c2.921-1.666,5.617-.668,7.779,1.831,4.332,5.009,7.718,10.723,8.193,17.282.849,11.717.877,23.493,1.225,35.245a5.361,5.361,0,0,1-.416,1.4c-11.568-2.965-23.039-5.9-34.509-8.847-3.653-.938-7.279-2-10.963-2.8-1.706-.371-2.374-1.021-2.173-2.811,1.192-10.612,2.117-21.258,3.525-31.84.9-6.759,3.772-12.43,11.115-14.418A10.467,10.467,0,0,1,422.43,398.145Z" transform="translate(-124.817 -53.12)" fill="#fff"/>
    <path id="Path_7" data-name="Path 7" d="M316.529,269a43.053,43.053,0,0,1-9.755,24.295c-6.718,7.853-15.637,7.894-22.07-.219-6.976-8.8-11.146-18.869-8.971-30.312,1.986-10.448,11.753-16.839,22.455-15.56C309.067,248.5,316.507,256.725,316.529,269Z" transform="translate(-78.801 0)" fill="#fff"/>
    <path id="Path_8" data-name="Path 8" d="M460.493,344.707c-1.342,8.125-4.784,16.709-12.676,22.8-5.219,4.025-10.621,2.992-14.134-2.627a37.2,37.2,0,0,1-5.249-23.62c.781-8.331,8.634-14.27,16.92-13.639C453.994,328.275,460.44,334.927,460.493,344.707Z" transform="translate(-132.618 -28.31)" fill="#fff"/>
    <path id="Path_9" data-name="Path 9" d="M168.307,345.079c-.4,5.727-1.285,12.244-4.472,18.183-4.038,7.523-10.472,8.755-16.716,3.026a34.545,34.545,0,0,1-10.924-21.182c-1.294-9.373,6.035-17.248,15.663-17.559C161.045,327.252,168.452,334.744,168.307,345.079Z" transform="translate(-29.898 -28.299)" fill="#fff"/>
    <path id="Path_10" data-name="Path 10" d="M87.467,351.105c-1.648,5.871-2.68,12.011-5.088,17.552-3.659,8.42-10.821,9.54-17.38,3.162A35.377,35.377,0,0,1,54.429,350.1c-.971-8.251,6.208-15.847,15.169-16.556,8.141-.643,16.183,5.88,16.895,13.743.107,1.178.015,2.375.015,3.563Z" transform="translate(-1.175 -30.396)" fill="#fff"/>
    <path id="Path_11" data-name="Path 11" d="M525.875,333.538A15.794,15.794,0,0,1,541.743,352.3a36.478,36.478,0,0,1-9.495,18.821c-6.923,7.269-14.225,6.123-18.479-2.929a40.706,40.706,0,0,1-3.71-21.137C510.711,339.645,517.924,333.637,525.875,333.538Z" transform="translate(-161.323 -30.407)" fill="#fff"/>
  </g>
</svg>
