<svg xmlns="http://www.w3.org/2000/svg" width="185.5" height="218.448" viewBox="0 0 185.5 218.448">
    <defs>
        <style>
            .cls-1{fill:url(#linear-gradient)}
        </style>
        <linearGradient id="linear-gradient" x1=".05" x2="1.283" y1="1.397" y2="-.223" gradientUnits="objectBoundingBox">
            <stop offset="0" stop-color="#06ac6c"/>
            <stop offset="1" stop-color="#296a01"/>
        </linearGradient>
    </defs>
    <g id="Group_525" data-name="Group 525" transform="translate(-379.375 -247.444)">
        <path id="Path_369" d="M507.222 282.278l-22.555-6.288-2.167 2.91c21.217 5.894 30.376 20.256 31.636 43.156-8.041-13.835-15.378-25.226-31.134-27.92 15.831 10.419 21.532 24.655 17.785 42.273-6.014-9.482-12.206-19.247-18.4-29.011l-3.478 1.547c6.474 11.151 10.344 22.5 4.956 33.812l-14.931-28.84-4.412 1.26c-10.295 24.315-1.54 50.266-5.485 75.49l10.659 4.374c-12.913 12.246-16.723 12.324-32.676.347l11.035-4.656c-3.292-24.833 4.507-50.679-5.592-76.756-12.169 7.461-14.9 18.447-17.838 30.849-6.69-13.522-2.992-24.748 3.949-35.714L425.1 307.4l-17.883 27.427c-5.356-13.531-1.013-25.1 16.44-39.751-10.5-.3-14.667 3.143-30.247 25.357.678-21.477 10.413-35.205 30.736-41.506l-1.582-2.8-21.523 5.745c4.654-8.779 4.654-8.779 28.309-17.314l-10.9-5.361.156-1.631 20.977 2.236-5.019-10.417 14.229 8.71 4.7-10.653 4.972 10.713 15.4-9.648-7.112 11.326 22-2.347.329 1.611-9.968 4.674 29.435 15.629z" class="cls-1" data-name="Path 369" transform="translate(17.16)"/>
        <path id="Path_370" d="M440.776 358.557c4.981-4.438 11.74-10.466 19.2-17.12-24.971-16.636-52.093-20.685-80.084-21.608l-.52-3.156c8.295-1.671 16.563-4.6 24.886-4.767 20.981-.431 39.877 7.5 57.589 17.874 6.692 3.918 11.368 3 18.127.007A331.408 331.408 0 0 1 526.6 312.75c12.086-3.3 24.539-1.265 38.277 6.812-30.883 1.267-58.262 5.19-83.353 21.81 7.461 6.683 14 12.544 19.448 17.418 6.283-2.485 11.911-4.707 17.538-6.932l2.147 6.13-14.813 2.629.1 3.643c9.235 6.9 14.147 20.57 30.331 16.007-5.307 11.826-10.326 10.335-34.03-7.923-3.525 2.411-6.9 5.23-10.733 7.072-1.383.662-4.314-.536-5.732-1.794-.949-.842-1.182-4.33-.493-4.8 1.447-.98 3.71-.8 5.645-1 2.1-.224 4.214-.351 6.321-.52-.933-2.067-1.8-4.163-2.838-6.179-.316-.613-1.074-1-1.627-1.489-20.912-18.434-26.235-18.281-45.818 1.758-1.425 1.456-1.662 4.072-2.451 6.15 1.831.249 3.656.533 5.492.736 2.178.242 4.363.416 6.546.618-.276 1.707-.02 4.43-.938 4.91-2.016 1.054-5.083 1.969-6.894 1.14-3.247-1.489-5.885-4.305-7.23-5.356-10.951 5.094-21.005 9.957-31.292 14.271-1 .422-3.416-2.525-5.588-5.874 15.585 2.145 21.9-9.357 30.7-17.827-1.538-8.368-6.112-8.5-14.229-4.925l2.22-7.481 17.47 6.803z" class="cls-1" data-name="Path 370" transform="translate(0 77.992)"/>
    </g>
</svg>
