<svg xmlns="http://www.w3.org/2000/svg" width="168.773" height="191.05" viewBox="0 0 168.773 191.05">
    <defs>
        <style>
            .cls-1{fill:url(#linear-gradient)}
        </style>
        <linearGradient id="linear-gradient" x1=".814" x2=".056" y1=".104" y2=".907" gradientUnits="objectBoundingBox">
            <stop offset="0" stop-color="#017d4a"/>
            <stop offset="1" stop-color="#03bb70"/>
        </linearGradient>
    </defs>
    <path id="Path_371" d="M524.379 338.475c-8.751 1.924-17.45 4.148-26.269 5.681a41.031 41.031 0 0 0-21.888 10.7c-18.848 18.032-42.485 26.67-66.6 34.349-5.115 1.626-10.651 1.875-15.883 3.2a19.247 19.247 0 0 0-7.4 3.6 76.777 76.777 0 0 0-23.295 31.858l-1.312-.046c-1.155-7.079-2.935-14.125-3.295-21.244-.376-7.452 1.044-14.984.841-22.46-.132-4.927-1.463-9.891-2.79-14.688-1.044-3.778-1.013-6.913.921-10.543a23.857 23.857 0 0 0 2.346-10.189 25.346 25.346 0 0 1 4.782-14.808c4.668-6.334 8.816-13.127 14.035-18.962 10.032-11.208 22.623-17.45 37.875-19.233 23.914-2.8 44.6-13.6 62.888-28.8 10.186-8.468 19.44-18.06 29.1-27.168a13.158 13.158 0 0 1 3.64-2.907 102.208 102.208 0 0 0-2.805 9.906c-2.876 15.824-5.866 31.636-8.2 47.544a67.625 67.625 0 0 0 .006 18.676c1.266 9.3 6.257 16.742 14.272 21.841 1.506.958 3.538 1.087 5.333 1.586 1.3.363 2.6.705 3.9 1.056zm-80.255-4.564c-3.587-5.189-6.66-10.494-5.829-17.25.246-2.011-.425-4.135-.677-6.208l-1.287.015-1.312 1.841c-1.783.539-3.319-3.486-4.677.3l-2.688-1.466-1.065.53c.357 1.4.807 2.784 1.05 4.206.283 1.644.388 3.316.57 4.979l-1.712.545-4.958-10.519-1.53.582c.256 1.142.576 2.272.754 3.427.253 1.632.788 3.366.447 4.884-.222.985-1.789 1.669-2.756 2.485a12.448 12.448 0 0 1-1.774-2.808 48.7 48.7 0 0 1-1.068-5.327l-1.29-.04c-.554 1.4-1.161 2.777-1.65 4.2-.474 1.383-.828 2.808-1.546 5.278l-2.51-6.331c-.662 3.279-.431 6.371 2.744 7.892.5.24 2.288-2.2 3.3-3.218 2.22 4.517 3.221 4.643 8.56.431 9.238 4.406 5.968-4.379 7.877-8.049 3 2.805 5.01 5.506 4.779 9.453-.326 5.5.12 10.882 3.449 15.738l-2.094-12.188.622-.071 5.481 8.49.831-.48c-.04-.471-.08-.945-.111-1.4 2.808 4.323-1.669 6.214-3.538 9.275 5.072-1.456 6.765-4.533 6.109-8.754a103.147 103.147 0 0 1-1.133-14.457c-.052-3.846.563-7.7.881-11.553a28.764 28.764 0 0 1 .656 3.954c.212 7.052.283 14.109.527 21.158.08 2.236.465 4.551 3.387 4.9 2.845.342 2.947-1.971 3.529-3.79.148-.462.28-.927.413-1.361 5.564-.28 7.292-.687 5.013-7.018-1.038-2.876-.714-6.239-1.01-9.379l1.053-.12 3.015 11.433 1.185-.363-.964-4.471c1.327 1.1 2.4 2.035 3.547 2.858.1.077.724-.56 1.1-.865l-.748 6.017c4.074-1.611 4.437-2.408 3.129-6.737-.637-2.106-1.441-4.333-1.336-6.463.311-6.377 1.131-12.723 1.531-19.096.111-1.743-.548-3.532-.853-5.3l-1.343.151a14.708 14.708 0 0 0-.508 2.346c-.24 4.419-.567 8.837-.585 13.256-.019 4.878.265 9.758.413 14.639-3.834-3.276-5.657-7.276-4.634-12.4a81.118 81.118 0 0 0 1.54-9.413c.151-1.872-.459-3.809-.727-5.715l-1.515.043-.945 15.3c-3.116-4.283 2.057-9.269-2.417-13.352l-.985 3.612-3.362-.8c-.49 5.259 4.459 8.8 3.205 14.232-1.081 4.693-.225 9.829-.225 15.061l-4.132-.813-1.364 2.931c-3.609-7.341-2.485-14.6-.785-21.767.687-2.9.08-5.46-3.356-7.455-.477 1.718-.918 3.3-1.355 4.877l-1.626-1.216a11.439 11.439 0 0 0-1.155 3.224c-.151 3.911-.154 7.834-.074 11.75s.336 7.819.512 11.72zm-23.27 1.364l-6.174-9.333-.908.28a15.413 15.413 0 0 0 .607 3.972c.825 1.9 2.565 3.52 2.962 5.453a11.775 11.775 0 0 1-.647 6.393c-.61 1.537-2.414 2.6-3.689 3.874l-1.46-.73c5.118-6.1 4.108-11.634-1.047-16.656a5.048 5.048 0 0 0 .742 4.052c2.023 2.433 2.359 4.724.4 7.273l-2.159-1.226c1.472 6.106-3.624 8.73-5.441 13.016l5.829-4.767c3.883 4.025 5.715 2.848 10.035-5.592 2.8 1.355 5.518 2.8 8.36 3.941.591.237 1.641-.671 2.479-1.053a13.175 13.175 0 0 0-1.275-2.251 17 17 0 0 0-2.171-1.851c1.86-3.246 7.039-1.564 8.5-6.309h-9.918c2.408-1.173 4.2-1.54 5.127-2.639a7.065 7.065 0 0 0 1.312-4.48c-.025-.7-2.155-2.1-2.583-1.857-1.272.718-3.027 2.085-3.039 3.212-.021 2.448-1.768 2.269-3.048 2.922-1.8.924-4.172 1.484-2.842 4.425zm-27.816 10.815l.9-.009c-.216-2.66-.542-5.318-.591-7.978a4.25 4.25 0 0 1 1.029-2.882 43.748 43.748 0 0 1 4.634-3.474l.613 4.625c-1.706.293-3.627.151-3.9.754-.773 1.709-.871 3.723-1.358 6.273l3.96-1.173.908.89a48.458 48.458 0 0 1-4.8 5.672c-.265.243-2.34-1.49-3.72-2.4-2.316 2.038-.942 4.748-.111 7.378.819 2.577 2.571 3.209 4.875 1.9 6.79-3.855 10.993-8.49 6.993-15.96a4.58 4.58 0 0 1-.3-1.509c1.469-1.053 2.611-2.445 3.994-2.753 3.92-.878 2.731-3.055 1.444-5.407l-.764 2.851-1.6-1.278-1.475 3.141c-2.981-2.818-3.507-4.948-3.634-10.041-.046-1.869-1.269-3.714-1.955-5.567l-1.121.339-.536 2.27L392.21 323c3.144 2.162 4.4 4.955 3.507 8.517-2-2.2-.29-7.729-5.78-6.322-.991 4.074-2 8.209-3 12.345l-1.037-3.44-1.112.265.887 6.818 1.192.018 1.915-2.984c.767.222 2.1.259 2.257.711.829 2.327 1.361 4.763 1.999 7.162zm4.169 18.085l.135 1.712c1.5.243 3.039.856 4.48.668q10.6-1.39 21.142-3.147c10.5-1.74 18.9-8.012 27.883-13.041 1.355-.758 3.175-.687 4.782-1 3.012-.868 5.74-2.759 8.748-3.917 2.457-.949 3.123-2.5 2.387-4.52-1-2.75-2.953-1.244-4.533-.465-1.321.65-2.485 1.65-3.846 2.174a32.008 32.008 0 0 1-4.665 1.05c-.409.628-.862 2.112-1.857 2.728-11.48 7.095-23.461 12.825-37.173 14.325-5.88.643-11.656 2.258-17.482 3.432zm5.361-38.2c2.525-2.685 5.241-5.29 4.166-9.416-.166-.637-1.072-1.081-1.635-1.614-.419.517-1.309 1.321-1.189 1.515 2.178 3.601-.688 6.34-1.341 9.516z" class="cls-1" data-name="Path 371" transform="translate(-355.808 -236.822)"/>
</svg>
