<svg xmlns="http://www.w3.org/2000/svg" width="87.383" height="96.112" viewBox="0 0 87.383 96.112"><defs><style>.a{fill:none;stroke:#fff;stroke-linecap:round;stroke-linejoin:round;stroke-miterlimit:10;stroke-width:3px;}</style></defs><g transform="translate(-6.5 -0.5)"><path class="a" d="M92.383,24.541V92.2a2.91,2.91,0,0,1-2.91,2.91H10.91A2.91,2.91,0,0,1,8,92.2V4.91A2.91,2.91,0,0,1,10.91,2H69.842a2.91,2.91,0,0,1,2.058.852L91.531,22.483A2.91,2.91,0,0,1,92.383,24.541Z"/><path class="a" d="M25.03,2V15.125a3.141,3.141,0,0,0,3.141,3.141H64.262A3.141,3.141,0,0,0,67.4,15.125V2Z" transform="translate(-4.642)"/><rect class="a" width="3.637" height="9.639" transform="translate(52.153 5.313)"/><path class="a" d="M24.25,68.591V112.45H84.991V68.591A2.981,2.981,0,0,0,82.01,65.61H27.231A2.981,2.981,0,0,0,24.25,68.591Z" transform="translate(-4.429 -17.338)"/><g transform="translate(26.822 60.521)"><line class="a" x2="46.738" transform="translate(0)"/><line class="a" x2="46.738" transform="translate(0 11.172)"/><line class="a" x2="46.738" transform="translate(0 22.343)"/></g></g></svg>