<svg xmlns="http://www.w3.org/2000/svg" width="151" height="139" viewBox="0 0 151 139"><defs><style>.a{fill:none;}.b{fill:#fff;fill-rule:evenodd;}</style></defs><g transform="translate(0.055 -1.056)"><rect class="a" width="151" height="139" transform="translate(-0.055 1.056)"/><path class="b" d="M94.226,29.21c1.138.435,1.264.659,1.337,1.771,0,20.607.068,41.214,0,61.82-.074,7.539-6.773,14.467-15.1,14.544q-17.779.054-35.558,0c-7.874-.072-15.026-6.652-15.1-14.544V30.981s.9-2.839,2.971-1.572a1.965,1.965,0,0,1,.9,1.572c0,20.623-.2,41.246,0,61.867a11.393,11.393,0,0,0,11.186,10.77q17.826.163,35.655,0c5.873-.089,11.168-4.992,11.187-10.914V30.981a1.992,1.992,0,0,1,2.532-1.771ZM62.9,33.321a2,2,0,0,1,1.718,1.85v59.6c-.1,1.725-.888,1.761-1.718,1.851a2.008,2.008,0,0,1-2.151-1.851v-59.6A1.98,1.98,0,0,1,62.9,33.321Zm15.474,0a2,2,0,0,1,1.718,1.85v59.6a2.016,2.016,0,0,1-3.3,1.318,1.591,1.591,0,0,1-.567-1.318v-59.6A1.98,1.98,0,0,1,78.37,33.321Zm-30.949,0a2,2,0,0,1,1.718,1.85v59.6a2.029,2.029,0,0,1-3.3,1.318,1.591,1.591,0,0,1-.567-1.318v-59.6A1.98,1.98,0,0,1,47.422,33.321Zm55.394-7H23.026l-.243-.014c-1.644-.3-1.636-.94-1.688-1.731a1.994,1.994,0,0,1,1.93-1.98H45.271v-5.2a3.437,3.437,0,0,1,3.3-3.176c9.381-.114,18.764,0,28.146,0a3.43,3.43,0,0,1,3.372,3.248V22.6h22.728s3.133,1.139,1.49,3.05A2.1,2.1,0,0,1,102.816,26.325ZM49.139,22.6H76.22V17.943H49.139Z" transform="translate(12.949 7.559)"/></g></svg>